<?xml version="1.0" encoding="utf-8"?>
<svg viewBox="0 0 500 500" xmlns="http://www.w3.org/2000/svg" xmlns:bx="https://boxy-svg.com">
  <g id="SVGRepo_iconCarrier" transform="matrix(0, 0.970183, -0.970183, 0, 522.963578, 0)" bx:origin="0.509 0.077">
    <g style="">
      <path d="M 94.333 235.199 C 42.237 235.199 0 255.863 0 281.352 C 0 306.854 42.231 327.52 94.333 327.52 L 377.32 327.52 L 444.776 304.43 L 444.776 259.273 L 377.32 235.199 L 94.333 235.199 Z M 55.606 312.797 C 29.197 312.797 7.794 298.719 7.794 281.353 C 7.794 263.987 29.197 249.909 55.606 249.909 L 55.606 312.797 Z M 79.031 318.484 L 71.76 318.484 L 71.76 244.22 L 79.031 244.22 L 79.031 318.484 Z M 498.945 279.075 L 515.806 350.927 L 448.904 350.927 L 448.904 211.778 L 515.806 211.778 L 498.945 279.075 Z" style="pointer-events: none;"/>
    </g>
  </g>
</svg>